<svg xmlns="http://www.w3.org/2000/svg" viewBox="0 0 899 213" width="899" height="213" role="img" aria-label="0 contributions in the last year">
<style>
  .c { opacity: 0; transform-box: fill-box; transform-origin: center; animation: drop 0.5s cubic-bezier(.2,.8,.3,1.2) forwards; }
  @keyframes drop { from { opacity: 0; transform: translateY(-8px) scale(.6); } to { opacity: 1; transform: none; } }
  .d0 { animation-delay: 0.000s; }
  .d1 { animation-delay: 0.025s; }
  .d2 { animation-delay: 0.050s; }
  .d3 { animation-delay: 0.075s; }
  .d4 { animation-delay: 0.100s; }
  .d5 { animation-delay: 0.125s; }
  .d6 { animation-delay: 0.150s; }
  .d7 { animation-delay: 0.175s; }
  .d8 { animation-delay: 0.200s; }
  .d9 { animation-delay: 0.225s; }
  .d10 { animation-delay: 0.250s; }
  .d11 { animation-delay: 0.275s; }
  .d12 { animation-delay: 0.300s; }
  .d13 { animation-delay: 0.325s; }
  .d14 { animation-delay: 0.350s; }
  .d15 { animation-delay: 0.375s; }
  .d16 { animation-delay: 0.400s; }
  .d17 { animation-delay: 0.425s; }
  .d18 { animation-delay: 0.450s; }
  .d19 { animation-delay: 0.475s; }
  .d20 { animation-delay: 0.500s; }
  .d21 { animation-delay: 0.525s; }
  .d22 { animation-delay: 0.550s; }
  .d23 { animation-delay: 0.575s; }
  .d24 { animation-delay: 0.600s; }
  .d25 { animation-delay: 0.625s; }
  .d26 { animation-delay: 0.650s; }
  .d27 { animation-delay: 0.675s; }
  .d28 { animation-delay: 0.700s; }
  .d29 { animation-delay: 0.725s; }
  .d30 { animation-delay: 0.750s; }
  .d31 { animation-delay: 0.775s; }
  .d32 { animation-delay: 0.800s; }
  .d33 { animation-delay: 0.825s; }
  .d34 { animation-delay: 0.850s; }
  .d35 { animation-delay: 0.875s; }
  .d36 { animation-delay: 0.900s; }
  .d37 { animation-delay: 0.925s; }
  .d38 { animation-delay: 0.950s; }
  .d39 { animation-delay: 0.975s; }
  .d40 { animation-delay: 1.000s; }
  .d41 { animation-delay: 1.025s; }
  .d42 { animation-delay: 1.050s; }
  .d43 { animation-delay: 1.075s; }
  .d44 { animation-delay: 1.100s; }
  .d45 { animation-delay: 1.125s; }
  .d46 { animation-delay: 1.150s; }
  .d47 { animation-delay: 1.175s; }
  .d48 { animation-delay: 1.200s; }
  .d49 { animation-delay: 1.225s; }
  .d50 { animation-delay: 1.250s; }
  .d51 { animation-delay: 1.275s; }
  .d52 { animation-delay: 1.300s; }
  .d53 { animation-delay: 1.325s; }
  .d54 { animation-delay: 1.350s; }
  .d55 { animation-delay: 1.375s; }
  .d56 { animation-delay: 1.400s; }
  .d57 { animation-delay: 1.425s; }
  .d58 { animation-delay: 1.450s; }
  .ft { opacity: 0; animation: fade .6s ease-out 1.48s forwards; }
  @keyframes fade { to { opacity: 1; } }
  text { font-family: ui-monospace,SFMono-Regular,Menlo,Consolas,monospace; font-size: 11px; fill: #8b949e; }
</style>
<rect x=".5" y=".5" width="898" height="212" rx="10" fill="#0d1117" stroke="#30363d"/>
<text x="8" y="57">Mon</text>
<text x="8" y="89">Wed</text>
<text x="8" y="121">Fri</text>
<text x="34" y="21">Oct</text>
<rect class="c d0" x="34" y="30" width="13" height="13" rx="3" fill="#161b22"><title>0 on 2025-10-05</title></rect>
<rect class="c d1" x="34" y="46" width="13" height="13" rx="3" fill="#161b22"><title>0 on 2025-10-06</title></rect>
<rect class="c d2" x="34" y="62" width="13" height="13" rx="3" fill="#161b22"><title>0 on 2025-10-07</title></rect>
<rect class="c d3" x="34" y="78" width="13" height="13" rx="3" fill="#161b22"><title>0 on 2025-10-08</title></rect>
<rect class="c d4" x="34" y="94" width="13" height="13" rx="3" fill="#161b22"><title>0 on 2025-10-09</title></rect>
<rect class="c d5" x="34" y="110" width="13" height="13" rx="3" fill="#161b22"><title>0 on 2025-10-10</title></rect>
<rect class="c d6" x="34" y="126" width="13" height="13" rx="3" fill="#161b22"><title>0 on 2025-10-11</title></rect>
<rect class="c d1" x="50" y="30" width="13" height="13" rx="3" fill="#161b22"><title>0 on 2025-10-12</title></rect>
<rect class="c d2" x="50" y="46" width="13" height="13" rx="3" fill="#161b22"><title>0 on 2025-10-13</title></rect>
<rect class="c d3" x="50" y="62" width="13" height="13" rx="3" fill="#161b22"><title>0 on 2025-10-14</title></rect>
<rect class="c d4" x="50" y="78" width="13" height="13" rx="3" fill="#161b22"><title>0 on 2025-10-15</title></rect>
<rect class="c d5" x="50" y="94" width="13" height="13" rx="3" fill="#161b22"><title>0 on 2025-10-16</title></rect>
<rect class="c d6" x="50" y="110" width="13" height="13" rx="3" fill="#161b22"><title>0 on 2025-10-17</title></rect>
<rect class="c d7" x="50" y="126" width="13" height="13" rx="3" fill="#161b22"><title>0 on 2025-10-18</title></rect>
<rect class="c d2" x="66" y="30" width="13" height="13" rx="3" fill="#161b22"><title>0 on 2025-10-19</title></rect>
<rect class="c d3" x="66" y="46" width="13" height="13" rx="3" fill="#161b22"><title>0 on 2025-10-20</title></rect>
<rect class="c d4" x="66" y="62" width="13" height="13" rx="3" fill="#161b22"><title>0 on 2025-10-21</title></rect>
<rect class="c d5" x="66" y="78" width="13" height="13" rx="3" fill="#161b22"><title>0 on 2025-10-22</title></rect>
<rect class="c d6" x="66" y="94" width="13" height="13" rx="3" fill="#161b22"><title>0 on 2025-10-23</title></rect>
<rect class="c d7" x="66" y="110" width="13" height="13" rx="3" fill="#161b22"><title>0 on 2025-10-24</title></rect>
<rect class="c d8" x="66" y="126" width="13" height="13" rx="3" fill="#161b22"><title>0 on 2025-10-25</title></rect>
<rect class="c d3" x="82" y="30" width="13" height="13" rx="3" fill="#161b22"><title>0 on 2025-10-26</title></rect>
<rect class="c d4" x="82" y="46" width="13" height="13" rx="3" fill="#161b22"><title>0 on 2025-10-27</title></rect>
<rect class="c d5" x="82" y="62" width="13" height="13" rx="3" fill="#161b22"><title>0 on 2025-10-28</title></rect>
<rect class="c d6" x="82" y="78" width="13" height="13" rx="3" fill="#161b22"><title>0 on 2025-10-29</title></rect>
<rect class="c d7" x="82" y="94" width="13" height="13" rx="3" fill="#161b22"><title>0 on 2025-10-30</title></rect>
<rect class="c d8" x="82" y="110" width="13" height="13" rx="3" fill="#161b22"><title>0 on 2025-10-31</title></rect>
<rect class="c d9" x="82" y="126" width="13" height="13" rx="3" fill="#161b22"><title>0 on 2025-11-01</title></rect>
<text x="98" y="21">Nov</text>
<rect class="c d4" x="98" y="30" width="13" height="13" rx="3" fill="#161b22"><title>0 on 2025-11-02</title></rect>
<rect class="c d5" x="98" y="46" width="13" height="13" rx="3" fill="#161b22"><title>0 on 2025-11-03</title></rect>
<rect class="c d6" x="98" y="62" width="13" height="13" rx="3" fill="#161b22"><title>0 on 2025-11-04</title></rect>
<rect class="c d7" x="98" y="78" width="13" height="13" rx="3" fill="#161b22"><title>0 on 2025-11-05</title></rect>
<rect class="c d8" x="98" y="94" width="13" height="13" rx="3" fill="#161b22"><title>0 on 2025-11-06</title></rect>
<rect class="c d9" x="98" y="110" width="13" height="13" rx="3" fill="#161b22"><title>0 on 2025-11-07</title></rect>
<rect class="c d10" x="98" y="126" width="13" height="13" rx="3" fill="#161b22"><title>0 on 2025-11-08</title></rect>
<rect class="c d5" x="114" y="30" width="13" height="13" rx="3" fill="#161b22"><title>0 on 2025-11-09</title></rect>
<rect class="c d6" x="114" y="46" width="13" height="13" rx="3" fill="#161b22"><title>0 on 2025-11-10</title></rect>
<rect class="c d7" x="114" y="62" width="13" height="13" rx="3" fill="#161b22"><title>0 on 2025-11-11</title></rect>
<rect class="c d8" x="114" y="78" width="13" height="13" rx="3" fill="#161b22"><title>0 on 2025-11-12</title></rect>
<rect class="c d9" x="114" y="94" width="13" height="13" rx="3" fill="#161b22"><title>0 on 2025-11-13</title></rect>
<rect class="c d10" x="114" y="110" width="13" height="13" rx="3" fill="#161b22"><title>0 on 2025-11-14</title></rect>
<rect class="c d11" x="114" y="126" width="13" height="13" rx="3" fill="#161b22"><title>0 on 2025-11-15</title></rect>
<rect class="c d6" x="130" y="30" width="13" height="13" rx="3" fill="#161b22"><title>0 on 2025-11-16</title></rect>
<rect class="c d7" x="130" y="46" width="13" height="13" rx="3" fill="#161b22"><title>0 on 2025-11-17</title></rect>
<rect class="c d8" x="130" y="62" width="13" height="13" rx="3" fill="#161b22"><title>0 on 2025-11-18</title></rect>
<rect class="c d9" x="130" y="78" width="13" height="13" rx="3" fill="#161b22"><title>0 on 2025-11-19</title></rect>
<rect class="c d10" x="130" y="94" width="13" height="13" rx="3" fill="#161b22"><title>0 on 2025-11-20</title></rect>
<rect class="c d11" x="130" y="110" width="13" height="13" rx="3" fill="#161b22"><title>0 on 2025-11-21</title></rect>
<rect class="c d12" x="130" y="126" width="13" height="13" rx="3" fill="#161b22"><title>0 on 2025-11-22</title></rect>
<rect class="c d7" x="146" y="30" width="13" height="13" rx="3" fill="#161b22"><title>0 on 2025-11-23</title></rect>
<rect class="c d8" x="146" y="46" width="13" height="13" rx="3" fill="#161b22"><title>0 on 2025-11-24</title></rect>
<rect class="c d9" x="146" y="62" width="13" height="13" rx="3" fill="#161b22"><title>0 on 2025-11-25</title></rect>
<rect class="c d10" x="146" y="78" width="13" height="13" rx="3" fill="#161b22"><title>0 on 2025-11-26</title></rect>
<rect class="c d11" x="146" y="94" width="13" height="13" rx="3" fill="#161b22"><title>0 on 2025-11-27</title></rect>
<rect class="c d12" x="146" y="110" width="13" height="13" rx="3" fill="#161b22"><title>0 on 2025-11-28</title></rect>
<rect class="c d13" x="146" y="126" width="13" height="13" rx="3" fill="#161b22"><title>0 on 2025-11-29</title></rect>
<rect class="c d8" x="162" y="30" width="13" height="13" rx="3" fill="#161b22"><title>0 on 2025-11-30</title></rect>
<rect class="c d9" x="162" y="46" width="13" height="13" rx="3" fill="#161b22"><title>0 on 2025-12-01</title></rect>
<rect class="c d10" x="162" y="62" width="13" height="13" rx="3" fill="#161b22"><title>0 on 2025-12-02</title></rect>
<rect class="c d11" x="162" y="78" width="13" height="13" rx="3" fill="#161b22"><title>0 on 2025-12-03</title></rect>
<rect class="c d12" x="162" y="94" width="13" height="13" rx="3" fill="#161b22"><title>0 on 2025-12-04</title></rect>
<rect class="c d13" x="162" y="110" width="13" height="13" rx="3" fill="#161b22"><title>0 on 2025-12-05</title></rect>
<rect class="c d14" x="162" y="126" width="13" height="13" rx="3" fill="#161b22"><title>0 on 2025-12-06</title></rect>
<text x="178" y="21">Dec</text>
<rect class="c d9" x="178" y="30" width="13" height="13" rx="3" fill="#161b22"><title>0 on 2025-12-07</title></rect>
<rect class="c d10" x="178" y="46" width="13" height="13" rx="3" fill="#161b22"><title>0 on 2025-12-08</title></rect>
<rect class="c d11" x="178" y="62" width="13" height="13" rx="3" fill="#161b22"><title>0 on 2025-12-09</title></rect>
<rect class="c d12" x="178" y="78" width="13" height="13" rx="3" fill="#161b22"><title>0 on 2025-12-10</title></rect>
<rect class="c d13" x="178" y="94" width="13" height="13" rx="3" fill="#161b22"><title>0 on 2025-12-11</title></rect>
<rect class="c d14" x="178" y="110" width="13" height="13" rx="3" fill="#161b22"><title>0 on 2025-12-12</title></rect>
<rect class="c d15" x="178" y="126" width="13" height="13" rx="3" fill="#161b22"><title>0 on 2025-12-13</title></rect>
<rect class="c d10" x="194" y="30" width="13" height="13" rx="3" fill="#161b22"><title>0 on 2025-12-14</title></rect>
<rect class="c d11" x="194" y="46" width="13" height="13" rx="3" fill="#161b22"><title>0 on 2025-12-15</title></rect>
<rect class="c d12" x="194" y="62" width="13" height="13" rx="3" fill="#161b22"><title>0 on 2025-12-16</title></rect>
<rect class="c d13" x="194" y="78" width="13" height="13" rx="3" fill="#161b22"><title>0 on 2025-12-17</title></rect>
<rect class="c d14" x="194" y="94" width="13" height="13" rx="3" fill="#161b22"><title>0 on 2025-12-18</title></rect>
<rect class="c d15" x="194" y="110" width="13" height="13" rx="3" fill="#161b22"><title>0 on 2025-12-19</title></rect>
<rect class="c d16" x="194" y="126" width="13" height="13" rx="3" fill="#161b22"><title>0 on 2025-12-20</title></rect>
<rect class="c d11" x="210" y="30" width="13" height="13" rx="3" fill="#161b22"><title>0 on 2025-12-21</title></rect>
<rect class="c d12" x="210" y="46" width="13" height="13" rx="3" fill="#161b22"><title>0 on 2025-12-22</title></rect>
<rect class="c d13" x="210" y="62" width="13" height="13" rx="3" fill="#161b22"><title>0 on 2025-12-23</title></rect>
<rect class="c d14" x="210" y="78" width="13" height="13" rx="3" fill="#161b22"><title>0 on 2025-12-24</title></rect>
<rect class="c d15" x="210" y="94" width="13" height="13" rx="3" fill="#161b22"><title>0 on 2025-12-25</title></rect>
<rect class="c d16" x="210" y="110" width="13" height="13" rx="3" fill="#161b22"><title>0 on 2025-12-26</title></rect>
<rect class="c d17" x="210" y="126" width="13" height="13" rx="3" fill="#161b22"><title>0 on 2025-12-27</title></rect>
<rect class="c d12" x="226" y="30" width="13" height="13" rx="3" fill="#161b22"><title>0 on 2025-12-28</title></rect>
<rect class="c d13" x="226" y="46" width="13" height="13" rx="3" fill="#161b22"><title>0 on 2025-12-29</title></rect>
<rect class="c d14" x="226" y="62" width="13" height="13" rx="3" fill="#161b22"><title>0 on 2025-12-30</title></rect>
<rect class="c d15" x="226" y="78" width="13" height="13" rx="3" fill="#161b22"><title>0 on 2025-12-31</title></rect>
<rect class="c d16" x="226" y="94" width="13" height="13" rx="3" fill="#161b22"><title>0 on 2026-01-01</title></rect>
<rect class="c d17" x="226" y="110" width="13" height="13" rx="3" fill="#161b22"><title>0 on 2026-01-02</title></rect>
<rect class="c d18" x="226" y="126" width="13" height="13" rx="3" fill="#161b22"><title>0 on 2026-01-03</title></rect>
<text x="242" y="21">Jan</text>
<rect class="c d13" x="242" y="30" width="13" height="13" rx="3" fill="#161b22"><title>0 on 2026-01-04</title></rect>
<rect class="c d14" x="242" y="46" width="13" height="13" rx="3" fill="#161b22"><title>0 on 2026-01-05</title></rect>
<rect class="c d15" x="242" y="62" width="13" height="13" rx="3" fill="#161b22"><title>0 on 2026-01-06</title></rect>
<rect class="c d16" x="242" y="78" width="13" height="13" rx="3" fill="#161b22"><title>0 on 2026-01-07</title></rect>
<rect class="c d17" x="242" y="94" width="13" height="13" rx="3" fill="#161b22"><title>0 on 2026-01-08</title></rect>
<rect class="c d18" x="242" y="110" width="13" height="13" rx="3" fill="#161b22"><title>0 on 2026-01-09</title></rect>
<rect class="c d19" x="242" y="126" width="13" height="13" rx="3" fill="#161b22"><title>0 on 2026-01-10</title></rect>
<rect class="c d14" x="258" y="30" width="13" height="13" rx="3" fill="#161b22"><title>0 on 2026-01-11</title></rect>
<rect class="c d15" x="258" y="46" width="13" height="13" rx="3" fill="#161b22"><title>0 on 2026-01-12</title></rect>
<rect class="c d16" x="258" y="62" width="13" height="13" rx="3" fill="#161b22"><title>0 on 2026-01-13</title></rect>
<rect class="c d17" x="258" y="78" width="13" height="13" rx="3" fill="#161b22"><title>0 on 2026-01-14</title></rect>
<rect class="c d18" x="258" y="94" width="13" height="13" rx="3" fill="#161b22"><title>0 on 2026-01-15</title></rect>
<rect class="c d19" x="258" y="110" width="13" height="13" rx="3" fill="#161b22"><title>0 on 2026-01-16</title></rect>
<rect class="c d20" x="258" y="126" width="13" height="13" rx="3" fill="#161b22"><title>0 on 2026-01-17</title></rect>
<rect class="c d15" x="274" y="30" width="13" height="13" rx="3" fill="#161b22"><title>0 on 2026-01-18</title></rect>
<rect class="c d16" x="274" y="46" width="13" height="13" rx="3" fill="#161b22"><title>0 on 2026-01-19</title></rect>
<rect class="c d17" x="274" y="62" width="13" height="13" rx="3" fill="#161b22"><title>0 on 2026-01-20</title></rect>
<rect class="c d18" x="274" y="78" width="13" height="13" rx="3" fill="#161b22"><title>0 on 2026-01-21</title></rect>
<rect class="c d19" x="274" y="94" width="13" height="13" rx="3" fill="#161b22"><title>0 on 2026-01-22</title></rect>
<rect class="c d20" x="274" y="110" width="13" height="13" rx="3" fill="#161b22"><title>0 on 2026-01-23</title></rect>
<rect class="c d21" x="274" y="126" width="13" height="13" rx="3" fill="#161b22"><title>0 on 2026-01-24</title></rect>
<rect class="c d16" x="290" y="30" width="13" height="13" rx="3" fill="#161b22"><title>0 on 2026-01-25</title></rect>
<rect class="c d17" x="290" y="46" width="13" height="13" rx="3" fill="#161b22"><title>0 on 2026-01-26</title></rect>
<rect class="c d18" x="290" y="62" width="13" height="13" rx="3" fill="#161b22"><title>0 on 2026-01-27</title></rect>
<rect class="c d19" x="290" y="78" width="13" height="13" rx="3" fill="#161b22"><title>0 on 2026-01-28</title></rect>
<rect class="c d20" x="290" y="94" width="13" height="13" rx="3" fill="#161b22"><title>0 on 2026-01-29</title></rect>
<rect class="c d21" x="290" y="110" width="13" height="13" rx="3" fill="#161b22"><title>0 on 2026-01-30</title></rect>
<rect class="c d22" x="290" y="126" width="13" height="13" rx="3" fill="#161b22"><title>0 on 2026-01-31</title></rect>
<text x="306" y="21">Feb</text>
<rect class="c d17" x="306" y="30" width="13" height="13" rx="3" fill="#161b22"><title>0 on 2026-02-01</title></rect>
<rect class="c d18" x="306" y="46" width="13" height="13" rx="3" fill="#161b22"><title>0 on 2026-02-02</title></rect>
<rect class="c d19" x="306" y="62" width="13" height="13" rx="3" fill="#161b22"><title>0 on 2026-02-03</title></rect>
<rect class="c d20" x="306" y="78" width="13" height="13" rx="3" fill="#161b22"><title>0 on 2026-02-04</title></rect>
<rect class="c d21" x="306" y="94" width="13" height="13" rx="3" fill="#161b22"><title>0 on 2026-02-05</title></rect>
<rect class="c d22" x="306" y="110" width="13" height="13" rx="3" fill="#161b22"><title>0 on 2026-02-06</title></rect>
<rect class="c d23" x="306" y="126" width="13" height="13" rx="3" fill="#161b22"><title>0 on 2026-02-07</title></rect>
<rect class="c d18" x="322" y="30" width="13" height="13" rx="3" fill="#161b22"><title>0 on 2026-02-08</title></rect>
<rect class="c d19" x="322" y="46" width="13" height="13" rx="3" fill="#161b22"><title>0 on 2026-02-09</title></rect>
<rect class="c d20" x="322" y="62" width="13" height="13" rx="3" fill="#161b22"><title>0 on 2026-02-10</title></rect>
<rect class="c d21" x="322" y="78" width="13" height="13" rx="3" fill="#161b22"><title>0 on 2026-02-11</title></rect>
<rect class="c d22" x="322" y="94" width="13" height="13" rx="3" fill="#161b22"><title>0 on 2026-02-12</title></rect>
<rect class="c d23" x="322" y="110" width="13" height="13" rx="3" fill="#161b22"><title>0 on 2026-02-13</title></rect>
<rect class="c d24" x="322" y="126" width="13" height="13" rx="3" fill="#161b22"><title>0 on 2026-02-14</title></rect>
<rect class="c d19" x="338" y="30" width="13" height="13" rx="3" fill="#161b22"><title>0 on 2026-02-15</title></rect>
<rect class="c d20" x="338" y="46" width="13" height="13" rx="3" fill="#161b22"><title>0 on 2026-02-16</title></rect>
<rect class="c d21" x="338" y="62" width="13" height="13" rx="3" fill="#161b22"><title>0 on 2026-02-17</title></rect>
<rect class="c d22" x="338" y="78" width="13" height="13" rx="3" fill="#161b22"><title>0 on 2026-02-18</title></rect>
<rect class="c d23" x="338" y="94" width="13" height="13" rx="3" fill="#161b22"><title>0 on 2026-02-19</title></rect>
<rect class="c d24" x="338" y="110" width="13" height="13" rx="3" fill="#161b22"><title>0 on 2026-02-20</title></rect>
<rect class="c d25" x="338" y="126" width="13" height="13" rx="3" fill="#161b22"><title>0 on 2026-02-21</title></rect>
<rect class="c d20" x="354" y="30" width="13" height="13" rx="3" fill="#161b22"><title>0 on 2026-02-22</title></rect>
<rect class="c d21" x="354" y="46" width="13" height="13" rx="3" fill="#161b22"><title>0 on 2026-02-23</title></rect>
<rect class="c d22" x="354" y="62" width="13" height="13" rx="3" fill="#161b22"><title>0 on 2026-02-24</title></rect>
<rect class="c d23" x="354" y="78" width="13" height="13" rx="3" fill="#161b22"><title>0 on 2026-02-25</title></rect>
<rect class="c d24" x="354" y="94" width="13" height="13" rx="3" fill="#161b22"><title>0 on 2026-02-26</title></rect>
<rect class="c d25" x="354" y="110" width="13" height="13" rx="3" fill="#161b22"><title>0 on 2026-02-27</title></rect>
<rect class="c d26" x="354" y="126" width="13" height="13" rx="3" fill="#161b22"><title>0 on 2026-02-28</title></rect>
<text x="370" y="21">Mar</text>
<rect class="c d21" x="370" y="30" width="13" height="13" rx="3" fill="#161b22"><title>0 on 2026-03-01</title></rect>
<rect class="c d22" x="370" y="46" width="13" height="13" rx="3" fill="#161b22"><title>0 on 2026-03-02</title></rect>
<rect class="c d23" x="370" y="62" width="13" height="13" rx="3" fill="#161b22"><title>0 on 2026-03-03</title></rect>
<rect class="c d24" x="370" y="78" width="13" height="13" rx="3" fill="#161b22"><title>0 on 2026-03-04</title></rect>
<rect class="c d25" x="370" y="94" width="13" height="13" rx="3" fill="#161b22"><title>0 on 2026-03-05</title></rect>
<rect class="c d26" x="370" y="110" width="13" height="13" rx="3" fill="#161b22"><title>0 on 2026-03-06</title></rect>
<rect class="c d27" x="370" y="126" width="13" height="13" rx="3" fill="#161b22"><title>0 on 2026-03-07</title></rect>
<rect class="c d22" x="386" y="30" width="13" height="13" rx="3" fill="#161b22"><title>0 on 2026-03-08</title></rect>
<rect class="c d23" x="386" y="46" width="13" height="13" rx="3" fill="#161b22"><title>0 on 2026-03-09</title></rect>
<rect class="c d24" x="386" y="62" width="13" height="13" rx="3" fill="#161b22"><title>0 on 2026-03-10</title></rect>
<rect class="c d25" x="386" y="78" width="13" height="13" rx="3" fill="#161b22"><title>0 on 2026-03-11</title></rect>
<rect class="c d26" x="386" y="94" width="13" height="13" rx="3" fill="#161b22"><title>0 on 2026-03-12</title></rect>
<rect class="c d27" x="386" y="110" width="13" height="13" rx="3" fill="#161b22"><title>0 on 2026-03-13</title></rect>
<rect class="c d28" x="386" y="126" width="13" height="13" rx="3" fill="#161b22"><title>0 on 2026-03-14</title></rect>
<rect class="c d23" x="402" y="30" width="13" height="13" rx="3" fill="#161b22"><title>0 on 2026-03-15</title></rect>
<rect class="c d24" x="402" y="46" width="13" height="13" rx="3" fill="#161b22"><title>0 on 2026-03-16</title></rect>
<rect class="c d25" x="402" y="62" width="13" height="13" rx="3" fill="#161b22"><title>0 on 2026-03-17</title></rect>
<rect class="c d26" x="402" y="78" width="13" height="13" rx="3" fill="#161b22"><title>0 on 2026-03-18</title></rect>
<rect class="c d27" x="402" y="94" width="13" height="13" rx="3" fill="#161b22"><title>0 on 2026-03-19</title></rect>
<rect class="c d28" x="402" y="110" width="13" height="13" rx="3" fill="#161b22"><title>0 on 2026-03-20</title></rect>
<rect class="c d29" x="402" y="126" width="13" height="13" rx="3" fill="#161b22"><title>0 on 2026-03-21</title></rect>
<rect class="c d24" x="418" y="30" width="13" height="13" rx="3" fill="#161b22"><title>0 on 2026-03-22</title></rect>
<rect class="c d25" x="418" y="46" width="13" height="13" rx="3" fill="#161b22"><title>0 on 2026-03-23</title></rect>
<rect class="c d26" x="418" y="62" width="13" height="13" rx="3" fill="#161b22"><title>0 on 2026-03-24</title></rect>
<rect class="c d27" x="418" y="78" width="13" height="13" rx="3" fill="#161b22"><title>0 on 2026-03-25</title></rect>
<rect class="c d28" x="418" y="94" width="13" height="13" rx="3" fill="#161b22"><title>0 on 2026-03-26</title></rect>
<rect class="c d29" x="418" y="110" width="13" height="13" rx="3" fill="#161b22"><title>0 on 2026-03-27</title></rect>
<rect class="c d30" x="418" y="126" width="13" height="13" rx="3" fill="#161b22"><title>0 on 2026-03-28</title></rect>
<rect class="c d25" x="434" y="30" width="13" height="13" rx="3" fill="#161b22"><title>0 on 2026-03-29</title></rect>
<rect class="c d26" x="434" y="46" width="13" height="13" rx="3" fill="#161b22"><title>0 on 2026-03-30</title></rect>
<rect class="c d27" x="434" y="62" width="13" height="13" rx="3" fill="#161b22"><title>0 on 2026-03-31</title></rect>
<rect class="c d28" x="434" y="78" width="13" height="13" rx="3" fill="#161b22"><title>0 on 2026-04-01</title></rect>
<rect class="c d29" x="434" y="94" width="13" height="13" rx="3" fill="#161b22"><title>0 on 2026-04-02</title></rect>
<rect class="c d30" x="434" y="110" width="13" height="13" rx="3" fill="#161b22"><title>0 on 2026-04-03</title></rect>
<rect class="c d31" x="434" y="126" width="13" height="13" rx="3" fill="#161b22"><title>0 on 2026-04-04</title></rect>
<text x="450" y="21">Apr</text>
<rect class="c d26" x="450" y="30" width="13" height="13" rx="3" fill="#161b22"><title>0 on 2026-04-05</title></rect>
<rect class="c d27" x="450" y="46" width="13" height="13" rx="3" fill="#161b22"><title>0 on 2026-04-06</title></rect>
<rect class="c d28" x="450" y="62" width="13" height="13" rx="3" fill="#161b22"><title>0 on 2026-04-07</title></rect>
<rect class="c d29" x="450" y="78" width="13" height="13" rx="3" fill="#161b22"><title>0 on 2026-04-08</title></rect>
<rect class="c d30" x="450" y="94" width="13" height="13" rx="3" fill="#161b22"><title>0 on 2026-04-09</title></rect>
<rect class="c d31" x="450" y="110" width="13" height="13" rx="3" fill="#161b22"><title>0 on 2026-04-10</title></rect>
<rect class="c d32" x="450" y="126" width="13" height="13" rx="3" fill="#161b22"><title>0 on 2026-04-11</title></rect>
<rect class="c d27" x="466" y="30" width="13" height="13" rx="3" fill="#161b22"><title>0 on 2026-04-12</title></rect>
<rect class="c d28" x="466" y="46" width="13" height="13" rx="3" fill="#161b22"><title>0 on 2026-04-13</title></rect>
<rect class="c d29" x="466" y="62" width="13" height="13" rx="3" fill="#161b22"><title>0 on 2026-04-14</title></rect>
<rect class="c d30" x="466" y="78" width="13" height="13" rx="3" fill="#161b22"><title>0 on 2026-04-15</title></rect>
<rect class="c d31" x="466" y="94" width="13" height="13" rx="3" fill="#161b22"><title>0 on 2026-04-16</title></rect>
<rect class="c d32" x="466" y="110" width="13" height="13" rx="3" fill="#161b22"><title>0 on 2026-04-17</title></rect>
<rect class="c d33" x="466" y="126" width="13" height="13" rx="3" fill="#161b22"><title>0 on 2026-04-18</title></rect>
<rect class="c d28" x="482" y="30" width="13" height="13" rx="3" fill="#161b22"><title>0 on 2026-04-19</title></rect>
<rect class="c d29" x="482" y="46" width="13" height="13" rx="3" fill="#161b22"><title>0 on 2026-04-20</title></rect>
<rect class="c d30" x="482" y="62" width="13" height="13" rx="3" fill="#161b22"><title>0 on 2026-04-21</title></rect>
<rect class="c d31" x="482" y="78" width="13" height="13" rx="3" fill="#161b22"><title>0 on 2026-04-22</title></rect>
<rect class="c d32" x="482" y="94" width="13" height="13" rx="3" fill="#161b22"><title>0 on 2026-04-23</title></rect>
<rect class="c d33" x="482" y="110" width="13" height="13" rx="3" fill="#161b22"><title>0 on 2026-04-24</title></rect>
<rect class="c d34" x="482" y="126" width="13" height="13" rx="3" fill="#161b22"><title>0 on 2026-04-25</title></rect>
<rect class="c d29" x="498" y="30" width="13" height="13" rx="3" fill="#161b22"><title>0 on 2026-04-26</title></rect>
<rect class="c d30" x="498" y="46" width="13" height="13" rx="3" fill="#161b22"><title>0 on 2026-04-27</title></rect>
<rect class="c d31" x="498" y="62" width="13" height="13" rx="3" fill="#161b22"><title>0 on 2026-04-28</title></rect>
<rect class="c d32" x="498" y="78" width="13" height="13" rx="3" fill="#161b22"><title>0 on 2026-04-29</title></rect>
<rect class="c d33" x="498" y="94" width="13" height="13" rx="3" fill="#161b22"><title>0 on 2026-04-30</title></rect>
<rect class="c d34" x="498" y="110" width="13" height="13" rx="3" fill="#161b22"><title>0 on 2026-05-01</title></rect>
<rect class="c d35" x="498" y="126" width="13" height="13" rx="3" fill="#161b22"><title>0 on 2026-05-02</title></rect>
<text x="514" y="21">May</text>
<rect class="c d30" x="514" y="30" width="13" height="13" rx="3" fill="#161b22"><title>0 on 2026-05-03</title></rect>
<rect class="c d31" x="514" y="46" width="13" height="13" rx="3" fill="#161b22"><title>0 on 2026-05-04</title></rect>
<rect class="c d32" x="514" y="62" width="13" height="13" rx="3" fill="#161b22"><title>0 on 2026-05-05</title></rect>
<rect class="c d33" x="514" y="78" width="13" height="13" rx="3" fill="#161b22"><title>0 on 2026-05-06</title></rect>
<rect class="c d34" x="514" y="94" width="13" height="13" rx="3" fill="#161b22"><title>0 on 2026-05-07</title></rect>
<rect class="c d35" x="514" y="110" width="13" height="13" rx="3" fill="#161b22"><title>0 on 2026-05-08</title></rect>
<rect class="c d36" x="514" y="126" width="13" height="13" rx="3" fill="#161b22"><title>0 on 2026-05-09</title></rect>
<rect class="c d31" x="530" y="30" width="13" height="13" rx="3" fill="#161b22"><title>0 on 2026-05-10</title></rect>
<rect class="c d32" x="530" y="46" width="13" height="13" rx="3" fill="#161b22"><title>0 on 2026-05-11</title></rect>
<rect class="c d33" x="530" y="62" width="13" height="13" rx="3" fill="#161b22"><title>0 on 2026-05-12</title></rect>
<rect class="c d34" x="530" y="78" width="13" height="13" rx="3" fill="#161b22"><title>0 on 2026-05-13</title></rect>
<rect class="c d35" x="530" y="94" width="13" height="13" rx="3" fill="#161b22"><title>0 on 2026-05-14</title></rect>
<rect class="c d36" x="530" y="110" width="13" height="13" rx="3" fill="#161b22"><title>0 on 2026-05-15</title></rect>
<rect class="c d37" x="530" y="126" width="13" height="13" rx="3" fill="#161b22"><title>0 on 2026-05-16</title></rect>
<rect class="c d32" x="546" y="30" width="13" height="13" rx="3" fill="#161b22"><title>0 on 2026-05-17</title></rect>
<rect class="c d33" x="546" y="46" width="13" height="13" rx="3" fill="#161b22"><title>0 on 2026-05-18</title></rect>
<rect class="c d34" x="546" y="62" width="13" height="13" rx="3" fill="#161b22"><title>0 on 2026-05-19</title></rect>
<rect class="c d35" x="546" y="78" width="13" height="13" rx="3" fill="#161b22"><title>0 on 2026-05-20</title></rect>
<rect class="c d36" x="546" y="94" width="13" height="13" rx="3" fill="#161b22"><title>0 on 2026-05-21</title></rect>
<rect class="c d37" x="546" y="110" width="13" height="13" rx="3" fill="#161b22"><title>0 on 2026-05-22</title></rect>
<rect class="c d38" x="546" y="126" width="13" height="13" rx="3" fill="#161b22"><title>0 on 2026-05-23</title></rect>
<rect class="c d33" x="562" y="30" width="13" height="13" rx="3" fill="#161b22"><title>0 on 2026-05-24</title></rect>
<rect class="c d34" x="562" y="46" width="13" height="13" rx="3" fill="#161b22"><title>0 on 2026-05-25</title></rect>
<rect class="c d35" x="562" y="62" width="13" height="13" rx="3" fill="#161b22"><title>0 on 2026-05-26</title></rect>
<rect class="c d36" x="562" y="78" width="13" height="13" rx="3" fill="#161b22"><title>0 on 2026-05-27</title></rect>
<rect class="c d37" x="562" y="94" width="13" height="13" rx="3" fill="#161b22"><title>0 on 2026-05-28</title></rect>
<rect class="c d38" x="562" y="110" width="13" height="13" rx="3" fill="#161b22"><title>0 on 2026-05-29</title></rect>
<rect class="c d39" x="562" y="126" width="13" height="13" rx="3" fill="#161b22"><title>0 on 2026-05-30</title></rect>
<rect class="c d34" x="578" y="30" width="13" height="13" rx="3" fill="#161b22"><title>0 on 2026-05-31</title></rect>
<rect class="c d35" x="578" y="46" width="13" height="13" rx="3" fill="#161b22"><title>0 on 2026-06-01</title></rect>
<rect class="c d36" x="578" y="62" width="13" height="13" rx="3" fill="#161b22"><title>0 on 2026-06-02</title></rect>
<rect class="c d37" x="578" y="78" width="13" height="13" rx="3" fill="#161b22"><title>0 on 2026-06-03</title></rect>
<rect class="c d38" x="578" y="94" width="13" height="13" rx="3" fill="#161b22"><title>0 on 2026-06-04</title></rect>
<rect class="c d39" x="578" y="110" width="13" height="13" rx="3" fill="#161b22"><title>0 on 2026-06-05</title></rect>
<rect class="c d40" x="578" y="126" width="13" height="13" rx="3" fill="#161b22"><title>0 on 2026-06-06</title></rect>
<text x="594" y="21">Jun</text>
<rect class="c d35" x="594" y="30" width="13" height="13" rx="3" fill="#161b22"><title>0 on 2026-06-07</title></rect>
<rect class="c d36" x="594" y="46" width="13" height="13" rx="3" fill="#161b22"><title>0 on 2026-06-08</title></rect>
<rect class="c d37" x="594" y="62" width="13" height="13" rx="3" fill="#161b22"><title>0 on 2026-06-09</title></rect>
<rect class="c d38" x="594" y="78" width="13" height="13" rx="3" fill="#161b22"><title>0 on 2026-06-10</title></rect>
<rect class="c d39" x="594" y="94" width="13" height="13" rx="3" fill="#161b22"><title>0 on 2026-06-11</title></rect>
<rect class="c d40" x="594" y="110" width="13" height="13" rx="3" fill="#161b22"><title>0 on 2026-06-12</title></rect>
<rect class="c d41" x="594" y="126" width="13" height="13" rx="3" fill="#161b22"><title>0 on 2026-06-13</title></rect>
<rect class="c d36" x="610" y="30" width="13" height="13" rx="3" fill="#161b22"><title>0 on 2026-06-14</title></rect>
<rect class="c d37" x="610" y="46" width="13" height="13" rx="3" fill="#161b22"><title>0 on 2026-06-15</title></rect>
<rect class="c d38" x="610" y="62" width="13" height="13" rx="3" fill="#161b22"><title>0 on 2026-06-16</title></rect>
<rect class="c d39" x="610" y="78" width="13" height="13" rx="3" fill="#161b22"><title>0 on 2026-06-17</title></rect>
<rect class="c d40" x="610" y="94" width="13" height="13" rx="3" fill="#161b22"><title>0 on 2026-06-18</title></rect>
<rect class="c d41" x="610" y="110" width="13" height="13" rx="3" fill="#161b22"><title>0 on 2026-06-19</title></rect>
<rect class="c d42" x="610" y="126" width="13" height="13" rx="3" fill="#161b22"><title>0 on 2026-06-20</title></rect>
<rect class="c d37" x="626" y="30" width="13" height="13" rx="3" fill="#161b22"><title>0 on 2026-06-21</title></rect>
<rect class="c d38" x="626" y="46" width="13" height="13" rx="3" fill="#161b22"><title>0 on 2026-06-22</title></rect>
<rect class="c d39" x="626" y="62" width="13" height="13" rx="3" fill="#161b22"><title>0 on 2026-06-23</title></rect>
<rect class="c d40" x="626" y="78" width="13" height="13" rx="3" fill="#161b22"><title>0 on 2026-06-24</title></rect>
<rect class="c d41" x="626" y="94" width="13" height="13" rx="3" fill="#161b22"><title>0 on 2026-06-25</title></rect>
<rect class="c d42" x="626" y="110" width="13" height="13" rx="3" fill="#161b22"><title>0 on 2026-06-26</title></rect>
<rect class="c d43" x="626" y="126" width="13" height="13" rx="3" fill="#161b22"><title>0 on 2026-06-27</title></rect>
<rect class="c d38" x="642" y="30" width="13" height="13" rx="3" fill="#161b22"><title>0 on 2026-06-28</title></rect>
<rect class="c d39" x="642" y="46" width="13" height="13" rx="3" fill="#161b22"><title>0 on 2026-06-29</title></rect>
<rect class="c d40" x="642" y="62" width="13" height="13" rx="3" fill="#161b22"><title>0 on 2026-06-30</title></rect>
<rect class="c d41" x="642" y="78" width="13" height="13" rx="3" fill="#161b22"><title>0 on 2026-07-01</title></rect>
<rect class="c d42" x="642" y="94" width="13" height="13" rx="3" fill="#161b22"><title>0 on 2026-07-02</title></rect>
<rect class="c d43" x="642" y="110" width="13" height="13" rx="3" fill="#161b22"><title>0 on 2026-07-03</title></rect>
<rect class="c d44" x="642" y="126" width="13" height="13" rx="3" fill="#161b22"><title>0 on 2026-07-04</title></rect>
<text x="658" y="21">Jul</text>
<rect class="c d39" x="658" y="30" width="13" height="13" rx="3" fill="#161b22"><title>0 on 2026-07-05</title></rect>
<rect class="c d40" x="658" y="46" width="13" height="13" rx="3" fill="#161b22"><title>0 on 2026-07-06</title></rect>
<rect class="c d41" x="658" y="62" width="13" height="13" rx="3" fill="#161b22"><title>0 on 2026-07-07</title></rect>
<rect class="c d42" x="658" y="78" width="13" height="13" rx="3" fill="#161b22"><title>0 on 2026-07-08</title></rect>
<rect class="c d43" x="658" y="94" width="13" height="13" rx="3" fill="#161b22"><title>0 on 2026-07-09</title></rect>
<rect class="c d44" x="658" y="110" width="13" height="13" rx="3" fill="#161b22"><title>0 on 2026-07-10</title></rect>
<rect class="c d45" x="658" y="126" width="13" height="13" rx="3" fill="#161b22"><title>0 on 2026-07-11</title></rect>
<rect class="c d40" x="674" y="30" width="13" height="13" rx="3" fill="#161b22"><title>0 on 2026-07-12</title></rect>
<rect class="c d41" x="674" y="46" width="13" height="13" rx="3" fill="#161b22"><title>0 on 2026-07-13</title></rect>
<rect class="c d42" x="674" y="62" width="13" height="13" rx="3" fill="#161b22"><title>0 on 2026-07-14</title></rect>
<rect class="c d43" x="674" y="78" width="13" height="13" rx="3" fill="#161b22"><title>0 on 2026-07-15</title></rect>
<rect class="c d44" x="674" y="94" width="13" height="13" rx="3" fill="#161b22"><title>0 on 2026-07-16</title></rect>
<rect class="c d45" x="674" y="110" width="13" height="13" rx="3" fill="#161b22"><title>0 on 2026-07-17</title></rect>
<rect class="c d46" x="674" y="126" width="13" height="13" rx="3" fill="#161b22"><title>0 on 2026-07-18</title></rect>
<rect class="c d41" x="690" y="30" width="13" height="13" rx="3" fill="#161b22"><title>0 on 2026-07-19</title></rect>
<rect class="c d42" x="690" y="46" width="13" height="13" rx="3" fill="#161b22"><title>0 on 2026-07-20</title></rect>
<rect class="c d43" x="690" y="62" width="13" height="13" rx="3" fill="#161b22"><title>0 on 2026-07-21</title></rect>
<rect class="c d44" x="690" y="78" width="13" height="13" rx="3" fill="#161b22"><title>0 on 2026-07-22</title></rect>
<rect class="c d45" x="690" y="94" width="13" height="13" rx="3" fill="#161b22"><title>0 on 2026-07-23</title></rect>
<rect class="c d46" x="690" y="110" width="13" height="13" rx="3" fill="#161b22"><title>0 on 2026-07-24</title></rect>
<rect class="c d47" x="690" y="126" width="13" height="13" rx="3" fill="#161b22"><title>0 on 2026-07-25</title></rect>
<rect class="c d42" x="706" y="30" width="13" height="13" rx="3" fill="#161b22"><title>0 on 2026-07-26</title></rect>
<rect class="c d43" x="706" y="46" width="13" height="13" rx="3" fill="#161b22"><title>0 on 2026-07-27</title></rect>
<rect class="c d44" x="706" y="62" width="13" height="13" rx="3" fill="#161b22"><title>0 on 2026-07-28</title></rect>
<rect class="c d45" x="706" y="78" width="13" height="13" rx="3" fill="#161b22"><title>0 on 2026-07-29</title></rect>
<rect class="c d46" x="706" y="94" width="13" height="13" rx="3" fill="#161b22"><title>0 on 2026-07-30</title></rect>
<rect class="c d47" x="706" y="110" width="13" height="13" rx="3" fill="#161b22"><title>0 on 2026-07-31</title></rect>
<rect class="c d48" x="706" y="126" width="13" height="13" rx="3" fill="#161b22"><title>0 on 2026-08-01</title></rect>
<text x="722" y="21">Aug</text>
<rect class="c d43" x="722" y="30" width="13" height="13" rx="3" fill="#161b22"><title>0 on 2026-08-02</title></rect>
<rect class="c d44" x="722" y="46" width="13" height="13" rx="3" fill="#161b22"><title>0 on 2026-08-03</title></rect>
<rect class="c d45" x="722" y="62" width="13" height="13" rx="3" fill="#161b22"><title>0 on 2026-08-04</title></rect>
<rect class="c d46" x="722" y="78" width="13" height="13" rx="3" fill="#161b22"><title>0 on 2026-08-05</title></rect>
<rect class="c d47" x="722" y="94" width="13" height="13" rx="3" fill="#161b22"><title>0 on 2026-08-06</title></rect>
<rect class="c d48" x="722" y="110" width="13" height="13" rx="3" fill="#161b22"><title>0 on 2026-08-07</title></rect>
<rect class="c d49" x="722" y="126" width="13" height="13" rx="3" fill="#161b22"><title>0 on 2026-08-08</title></rect>
<rect class="c d44" x="738" y="30" width="13" height="13" rx="3" fill="#161b22"><title>0 on 2026-08-09</title></rect>
<rect class="c d45" x="738" y="46" width="13" height="13" rx="3" fill="#161b22"><title>0 on 2026-08-10</title></rect>
<rect class="c d46" x="738" y="62" width="13" height="13" rx="3" fill="#161b22"><title>0 on 2026-08-11</title></rect>
<rect class="c d47" x="738" y="78" width="13" height="13" rx="3" fill="#161b22"><title>0 on 2026-08-12</title></rect>
<rect class="c d48" x="738" y="94" width="13" height="13" rx="3" fill="#161b22"><title>0 on 2026-08-13</title></rect>
<rect class="c d49" x="738" y="110" width="13" height="13" rx="3" fill="#161b22"><title>0 on 2026-08-14</title></rect>
<rect class="c d50" x="738" y="126" width="13" height="13" rx="3" fill="#161b22"><title>0 on 2026-08-15</title></rect>
<rect class="c d45" x="754" y="30" width="13" height="13" rx="3" fill="#161b22"><title>0 on 2026-08-16</title></rect>
<rect class="c d46" x="754" y="46" width="13" height="13" rx="3" fill="#161b22"><title>0 on 2026-08-17</title></rect>
<rect class="c d47" x="754" y="62" width="13" height="13" rx="3" fill="#161b22"><title>0 on 2026-08-18</title></rect>
<rect class="c d48" x="754" y="78" width="13" height="13" rx="3" fill="#161b22"><title>0 on 2026-08-19</title></rect>
<rect class="c d49" x="754" y="94" width="13" height="13" rx="3" fill="#161b22"><title>0 on 2026-08-20</title></rect>
<rect class="c d50" x="754" y="110" width="13" height="13" rx="3" fill="#161b22"><title>0 on 2026-08-21</title></rect>
<rect class="c d51" x="754" y="126" width="13" height="13" rx="3" fill="#161b22"><title>0 on 2026-08-22</title></rect>
<rect class="c d46" x="770" y="30" width="13" height="13" rx="3" fill="#161b22"><title>0 on 2026-08-23</title></rect>
<rect class="c d47" x="770" y="46" width="13" height="13" rx="3" fill="#161b22"><title>0 on 2026-08-24</title></rect>
<rect class="c d48" x="770" y="62" width="13" height="13" rx="3" fill="#161b22"><title>0 on 2026-08-25</title></rect>
<rect class="c d49" x="770" y="78" width="13" height="13" rx="3" fill="#161b22"><title>0 on 2026-08-26</title></rect>
<rect class="c d50" x="770" y="94" width="13" height="13" rx="3" fill="#161b22"><title>0 on 2026-08-27</title></rect>
<rect class="c d51" x="770" y="110" width="13" height="13" rx="3" fill="#161b22"><title>0 on 2026-08-28</title></rect>
<rect class="c d52" x="770" y="126" width="13" height="13" rx="3" fill="#161b22"><title>0 on 2026-08-29</title></rect>
<rect class="c d47" x="786" y="30" width="13" height="13" rx="3" fill="#161b22"><title>0 on 2026-08-30</title></rect>
<rect class="c d48" x="786" y="46" width="13" height="13" rx="3" fill="#161b22"><title>0 on 2026-08-31</title></rect>
<rect class="c d49" x="786" y="62" width="13" height="13" rx="3" fill="#161b22"><title>0 on 2026-09-01</title></rect>
<rect class="c d50" x="786" y="78" width="13" height="13" rx="3" fill="#161b22"><title>0 on 2026-09-02</title></rect>
<rect class="c d51" x="786" y="94" width="13" height="13" rx="3" fill="#161b22"><title>0 on 2026-09-03</title></rect>
<rect class="c d52" x="786" y="110" width="13" height="13" rx="3" fill="#161b22"><title>0 on 2026-09-04</title></rect>
<rect class="c d53" x="786" y="126" width="13" height="13" rx="3" fill="#161b22"><title>0 on 2026-09-05</title></rect>
<text x="802" y="21">Sep</text>
<rect class="c d48" x="802" y="30" width="13" height="13" rx="3" fill="#161b22"><title>0 on 2026-09-06</title></rect>
<rect class="c d49" x="802" y="46" width="13" height="13" rx="3" fill="#161b22"><title>0 on 2026-09-07</title></rect>
<rect class="c d50" x="802" y="62" width="13" height="13" rx="3" fill="#161b22"><title>0 on 2026-09-08</title></rect>
<rect class="c d51" x="802" y="78" width="13" height="13" rx="3" fill="#161b22"><title>0 on 2026-09-09</title></rect>
<rect class="c d52" x="802" y="94" width="13" height="13" rx="3" fill="#161b22"><title>0 on 2026-09-10</title></rect>
<rect class="c d53" x="802" y="110" width="13" height="13" rx="3" fill="#161b22"><title>0 on 2026-09-11</title></rect>
<rect class="c d54" x="802" y="126" width="13" height="13" rx="3" fill="#161b22"><title>0 on 2026-09-12</title></rect>
<rect class="c d49" x="818" y="30" width="13" height="13" rx="3" fill="#161b22"><title>0 on 2026-09-13</title></rect>
<rect class="c d50" x="818" y="46" width="13" height="13" rx="3" fill="#161b22"><title>0 on 2026-09-14</title></rect>
<rect class="c d51" x="818" y="62" width="13" height="13" rx="3" fill="#161b22"><title>0 on 2026-09-15</title></rect>
<rect class="c d52" x="818" y="78" width="13" height="13" rx="3" fill="#161b22"><title>0 on 2026-09-16</title></rect>
<rect class="c d53" x="818" y="94" width="13" height="13" rx="3" fill="#161b22"><title>0 on 2026-09-17</title></rect>
<rect class="c d54" x="818" y="110" width="13" height="13" rx="3" fill="#161b22"><title>0 on 2026-09-18</title></rect>
<rect class="c d55" x="818" y="126" width="13" height="13" rx="3" fill="#161b22"><title>0 on 2026-09-19</title></rect>
<rect class="c d50" x="834" y="30" width="13" height="13" rx="3" fill="#161b22"><title>0 on 2026-09-20</title></rect>
<rect class="c d51" x="834" y="46" width="13" height="13" rx="3" fill="#161b22"><title>0 on 2026-09-21</title></rect>
<rect class="c d52" x="834" y="62" width="13" height="13" rx="3" fill="#161b22"><title>0 on 2026-09-22</title></rect>
<rect class="c d53" x="834" y="78" width="13" height="13" rx="3" fill="#161b22"><title>0 on 2026-09-23</title></rect>
<rect class="c d54" x="834" y="94" width="13" height="13" rx="3" fill="#161b22"><title>0 on 2026-09-24</title></rect>
<rect class="c d55" x="834" y="110" width="13" height="13" rx="3" fill="#161b22"><title>0 on 2026-09-25</title></rect>
<rect class="c d56" x="834" y="126" width="13" height="13" rx="3" fill="#161b22"><title>0 on 2026-09-26</title></rect>
<rect class="c d51" x="850" y="30" width="13" height="13" rx="3" fill="#161b22"><title>0 on 2026-09-27</title></rect>
<rect class="c d52" x="850" y="46" width="13" height="13" rx="3" fill="#161b22"><title>0 on 2026-09-28</title></rect>
<rect class="c d53" x="850" y="62" width="13" height="13" rx="3" fill="#161b22"><title>0 on 2026-09-29</title></rect>
<rect class="c d54" x="850" y="78" width="13" height="13" rx="3" fill="#161b22"><title>0 on 2026-09-30</title></rect>
<rect class="c d55" x="850" y="94" width="13" height="13" rx="3" fill="#161b22"><title>0 on 2026-10-01</title></rect>
<rect class="c d56" x="850" y="110" width="13" height="13" rx="3" fill="#161b22"><title>0 on 2026-10-02</title></rect>
<rect class="c d57" x="850" y="126" width="13" height="13" rx="3" fill="#161b22"><title>0 on 2026-10-03</title></rect>
<rect class="c d52" x="866" y="30" width="13" height="13" rx="3" fill="#161b22"><title>0 on 2026-10-04</title></rect>
<rect class="c d53" x="866" y="46" width="13" height="13" rx="3" fill="#161b22"><title>0 on 2026-10-05</title></rect>
<rect class="c d54" x="866" y="62" width="13" height="13" rx="3" fill="#161b22"><title>0 on 2026-10-06</title></rect>
<g class="ft"><text x="34" y="169"><tspan fill="#c9d1d9" font-weight="bold">0</tspan> contributions in the last year  ·  streak <tspan fill="#c9d1d9">0d</tspan>  ·  longest <tspan fill="#c9d1d9">0d</tspan></text><text x="753" y="193" text-anchor="end">Less</text><rect x="757" y="182" width="13" height="13" rx="3" fill="#161b22"/><rect x="773" y="182" width="13" height="13" rx="3" fill="#0e4429"/><rect x="789" y="182" width="13" height="13" rx="3" fill="#006d32"/><rect x="805" y="182" width="13" height="13" rx="3" fill="#26a641"/><rect x="821" y="182" width="13" height="13" rx="3" fill="#39d353"/><rect x="837" y="182" width="13" height="13" rx="3" fill="#69f0a0"/><text x="857" y="193">More</text><text x="34" y="193" style="font-size:10px">$ updated daily by GitHub Actions</text></g>
</svg>
